<svg xmlns="http://www.w3.org/2000/svg" viewBox="0 0 779.64 217.99"><defs><style>.cls-1{fill:#c1b49a;}.cls-2{fill:#be1e2d;}.cls-3{fill:#ffdd15;}.cls-4{fill:#4c341f;}.cls-5{fill:#332113;}.cls-6{fill:#ec1c24;}.cls-7{fill:#2e3191;}.cls-8{fill:#00a551;}.cls-9{fill:#eb008b;}.cls-10{fill:#00adee;}.cls-11{fill:#f05a28;}</style></defs><title>Asset 1</title><g id="Layer_2" data-name="Layer 2"><g id="Layer_1-2" data-name="Layer 1"><path class="cls-1" d="M108,143.62A33.62,33.62,0,1,1,141.61,110,33.66,33.66,0,0,1,108,143.62Z"/><path class="cls-2" d="M216,102.28H144.37a36.92,36.92,0,0,0-1.29-4.58h61.46V93.12H141.11a37.43,37.43,0,0,0-16.24-16.24V13.45h-4.58V74.91a36.92,36.92,0,0,0-4.58-1.29V2H110V72.87q-1-.05-2-.06t-2,.06V2h-5.72V73.63a37,37,0,0,0-4.58,1.29V13.45H91.11V76.88A37.42,37.42,0,0,0,74.87,93.12H11.44V97.7H72.91a36.77,36.77,0,0,0-1.29,4.58H0V108H70.86q-.06,1-.06,2t.06,2H0v5.72H71.62a36.69,36.69,0,0,0,1.29,4.58H11.44v4.58H74.87a37.42,37.42,0,0,0,16.24,16.24v63.43h4.58V145.09a36.69,36.69,0,0,0,4.58,1.29V218H106V147.13c.66,0,1.33.05,2,.05s1.34,0,2-.05V218h5.72V146.37a36.72,36.72,0,0,0,4.58-1.29v61.46h4.58V143.12a37.42,37.42,0,0,0,16.24-16.24h63.43V122.3H143.08a36.88,36.88,0,0,0,1.29-4.58H216V112H145.12q.05-1,.06-2t-.06-2H216ZM108,141.47A31.47,31.47,0,1,1,139.46,110,31.5,31.5,0,0,1,108,141.47Z"/><circle class="cls-3" cx="107.99" cy="110" r="31.61"/><circle class="cls-2" cx="107.99" cy="110" r="19.51"/><path class="cls-2" d="M38.84,145.51A44.73,44.73,0,0,1,19,141.26l-2.82-1.38V116.76l7.07,3.15a68.07,68.07,0,0,0,9.89,3.69,26.71,26.71,0,0,0,6.69,1c2.46,0,3.43-.5,3.73-.72.08-.06.22-.15.22-.85a.46.46,0,0,0-.08-.33A6.53,6.53,0,0,0,42,121.2a70,70,0,0,0-7.43-3.85,42.41,42.41,0,0,1-9.68-5.88,24.37,24.37,0,0,1-5.72-7.22,21.39,21.39,0,0,1-2.27-10c0-7,2.48-12.68,7.37-16.81,4.64-3.92,10.93-5.9,18.7-5.9a41.67,41.67,0,0,1,10.52,1.31,68.86,68.86,0,0,1,9.94,3.48l4.54,2L59.93,97.75l-4.63-1.9a57.64,57.64,0,0,0-7.53-2.62,21.6,21.6,0,0,0-5.19-.66,4.17,4.17,0,0,0-2.44.51c-.16.14-.28.24-.28.76a1,1,0,0,0,0,.38,4.15,4.15,0,0,0,1.15,1,71.67,71.67,0,0,0,7.68,4c6.59,3.15,11.09,6.36,13.76,9.82a21.28,21.28,0,0,1,4.28,13.34c0,7.19-2.67,13-7.94,17.19C53.91,143.51,47.18,145.51,38.84,145.51Z"/><path class="cls-3" d="M61.76,122.37q0,8.42-6.06,13.27t-16.86,4.85a39.61,39.61,0,0,1-17.6-3.74V124.5a72.53,72.53,0,0,0,10.65,4,31.53,31.53,0,0,0,8,1.15,11.35,11.35,0,0,0,6.65-1.66A5.67,5.67,0,0,0,48.84,123a5.44,5.44,0,0,0-1-3.25,11.44,11.44,0,0,0-3-2.74,77.67,77.67,0,0,0-8.06-4.21,38.15,38.15,0,0,1-8.55-5.14,19.29,19.29,0,0,1-4.55-5.74A16.36,16.36,0,0,1,22,94.27q0-8.25,5.59-13T43,76.58a36.48,36.48,0,0,1,9.25,1.15A63.58,63.58,0,0,1,61.47,81L57.21,91.21A62.23,62.23,0,0,0,49,88.36a26.5,26.5,0,0,0-6.4-.81,8.47,8.47,0,0,0-5.74,1.74,5.75,5.75,0,0,0-2,4.55,5.63,5.63,0,0,0,.81,3,8.88,8.88,0,0,0,2.57,2.51,79.47,79.47,0,0,0,8.36,4.36q8.72,4.17,11.95,8.36A16.32,16.32,0,0,1,61.76,122.37Z"/><path class="cls-2" d="M179.36,145.51c-9.26,0-16.68-2.52-22-7.48s-8.24-12-8.24-20.5V72.45h23.18v43.08c0,3.43.59,6,1.67,7.27s3.77,1.61,5.76,1.61,4.41-.28,5.57-1.64,1.69-3.87,1.69-7.33v-43h23.18V117.7a28.24,28.24,0,0,1-3.79,14.64,25.09,25.09,0,0,1-11.07,9.92A37,37,0,0,1,179.36,145.51Z"/><path class="cls-3" d="M205.13,77.47V117.7A23.2,23.2,0,0,1,202,129.77a20.07,20.07,0,0,1-8.91,8,31.85,31.85,0,0,1-13.78,2.76q-12,0-18.62-6.14t-6.63-16.82V77.47h13.14v38.06q0,7.18,2.89,10.54t9.57,3.36q6.46,0,9.38-3.38T192,115.44v-38Z"/><polygon class="cls-2" points="231.35 144.66 231.35 93.47 214.47 93.47 214.47 72.45 271.46 72.45 271.46 93.47 254.58 93.47 254.58 144.66 231.35 144.66"/><path class="cls-3" d="M249.56,139.64H236.38V88.44H219.5v-11h46.94v11H249.56Z"/><polygon class="cls-2" points="315.75 144.66 315.75 117.83 301.18 117.83 301.18 144.66 277.95 144.66 277.95 72.45 301.18 72.45 301.18 96.81 315.75 96.81 315.75 72.45 338.93 72.45 338.93 144.66 315.75 144.66"/><path class="cls-3" d="M333.91,139.64H320.77V112.81H296.15v26.83H283V77.47h13.18v24.36h24.62V77.47h13.14Z"/><polygon class="cls-2" points="349.8 144.66 349.8 72.45 395.65 72.45 395.65 93.3 373.03 93.3 373.03 96.9 394.08 96.9 394.08 117.75 373.03 117.75 373.03 123.73 395.65 123.73 395.65 144.66 349.8 144.66"/><path class="cls-3" d="M390.63,139.64h-35.8V77.47h35.8v10.8H368v13.65h21v10.8H368v16h22.62Z"/><path class="cls-2" d="M441.07,144.66l-14-22.57v22.57H403.8V72.45h23.14c9.66,0,16.79,1.84,21.79,5.63,5.35,4.06,8.07,10.12,8.07,18a21.49,21.49,0,0,1-3.94,12.66,23.3,23.3,0,0,1-5.47,5.48c7.64,11.4,12.75,19,15.24,22.54l5.48,7.89ZM427,100c3.64-.09,5.1-.83,5.58-1.17.25-.17.83-.58.83-2.43,0-1.61-.46-1.9-.65-2-.5-.31-2-1-5.76-1.11Z"/><path class="cls-3" d="M422,115.78v23.85H408.82V77.47h18.11q12.67,0,18.75,4.61t6.08,14a16.49,16.49,0,0,1-3,9.76,20,20,0,0,1-8.55,6.7q14,21,18.28,27.08H443.86L429,115.78Zm0-10.72h4.25q6.25,0,9.23-2.08t3-6.55q0-4.42-3-6.29T426,88.27h-4Z"/><path class="cls-2" d="M554.67,206.79l-36.93-71.24Q518,141,518,145v61.77H477.57V70.88h52.61L567,141.27q-.13-4.64-.13-8.45V70.88h40.56V206.79Z"/><path class="cls-3" d="M602.3,201.62h-44.5l-45.87-88.47h-.77Q512.79,134,512.8,145v56.61H482.73V76h44.32l45.7,87.27h.52q-1.2-19-1.2-30.49V76H602.3Z"/><polygon class="cls-2" points="736.13 206.79 736.13 150.67 720.37 206.79 680.26 206.79 664.67 151.88 664.67 206.79 624.28 206.79 624.28 70.88 678.49 70.88 701.13 147.91 723.32 70.88 777.63 70.88 777.63 206.79 736.13 206.79"/><path class="cls-3" d="M684.16,201.62l-25.68-90.45h-.77q1.8,23.11,1.8,35.91v54.54H629.45V76h45.18l26.2,89.16h.69L727.2,76h45.27V201.62H741.29V146.56q0-4.29.13-9.53t1.16-25.68h-.77l-25.34,90.28Z"/><path class="cls-4" d="M89.46,185.34C86,198.61,75.95,207.4,67.11,205a11.22,11.22,0,0,1-3.41-1.58C59,185.13,83.52,175,84.26,159.34,90,164.15,92.31,174.56,89.46,185.34Z"/><path class="cls-5" d="M61.33,202.77c-6.49-4.36-9.28-15.37-6.27-26.8,3.5-13.26,13.5-22.06,22.35-19.65a11.71,11.71,0,0,1,4.47,2.37C81.14,174.38,56.63,184.48,61.33,202.77Z"/><path class="cls-6" d="M265.85,158.7a28.35,28.35,0,0,1-2.11,3.8q-1.94,3.25-4,6.47.62,1,2.52,3.8,1.69,2.47,2.36,3.53a22.81,22.81,0,0,1-1.64,3q-1.39,2.23-2.75,4.43.69,1,1.64,2.23a12.56,12.56,0,0,1,1.92,2.86q0,1.06-2,3.25l-3.64,3.84q.66,1.22,1.06,2.08a3.56,3.56,0,0,1,.39,1.29q0,.55-1.74,1-.58.16-1.74.35V178.57c-.3,0-1,.07-2.19.2a29.43,29.43,0,0,1-3.31.2q-.21-2-.41-5.61t-.66-6.78h6.87V162a13.13,13.13,0,0,1,1.7-6.39,10.56,10.56,0,0,1,3.48-4q1.26,1.8,2,3.1ZM258.11,189q0-1.29,1.41-1.29A1.14,1.14,0,0,1,260.8,189a1.12,1.12,0,0,1-1.28,1.26,1.61,1.61,0,0,1-1.05-.29A1.18,1.18,0,0,1,258.11,189Zm.17-14.19q0-1.37,1.24-1.37t1.28,1.37q0,1.21-1.28,1.22A1.09,1.09,0,0,1,258.28,174.85Zm3.56-15.8q0-1.25-1.37-1.25-1.2,0-1.2,1.25t1.2,1.25Q261.84,160.31,261.84,159.05Zm20.61-6.62q-.66,1.1-2.52,4.74-1.45,2.7-2.36,4.51a5.24,5.24,0,0,0-1.08-.8,2.3,2.3,0,0,0-1.12-.29,4.19,4.19,0,0,0-2.81,1.61,7.81,7.81,0,0,0-.37,1.84q-.08,1-.08,2.47v.82l6.71-.08a114.59,114.59,0,0,1-3.73,10.9h-3.23q0,5,0,7.77t-.1,6.77q-.06,4-.1,4-.37.16-4.55,1.18-1.41.31-4.26,1-.25,0-1.24-1.14a9.76,9.76,0,0,0-1.45-1.49,31.37,31.37,0,0,0,2.77-3q2.52-3,3.56-4.12-.5-.67-2-2.55-1.2-1.53-2.19-2.9l4.34-7.33-5-7.84,3.23-4.9q2.32-3.53,3-4.9l-1.32-2.82q-1.41-2.9-2.69-5.17a11.06,11.06,0,0,1,3.06-.77,26.34,26.34,0,0,1,3.35-.26,39.32,39.32,0,0,1,6.21.75Q281.53,151.33,282.44,152.43Z"/><path class="cls-7" d="M295.72,156.11a23.7,23.7,0,0,1-2.4,3.33Q292,161,290,163a9.3,9.3,0,0,1-2.36-2.23,8,8,0,0,1-1.53-4.78,7.12,7.12,0,0,1,.64-2.33A8.45,8.45,0,0,1,288.4,151a23.19,23.19,0,0,1,3.73,2.16A17.58,17.58,0,0,1,295.72,156.11Zm-.12,30.3q0,.47-2.34,3.63a22.38,22.38,0,0,0-2.34,3.43,12.44,12.44,0,0,0,1.9,3,16.76,16.76,0,0,1,1.69,2.78q-2.48.74-4.12,1.2a16.78,16.78,0,0,1-2.92.57V168.62a9.31,9.31,0,0,1,1.88-.39,6.6,6.6,0,0,0,2-.55q1.12,1.26,2.27,2.51a8,8,0,0,1,1.53,2.78l-3.35,9.8q.16.24,2.81,2.47Q295.6,186.06,295.6,186.41Zm-4.3-29.48a1.19,1.19,0,0,0-1.37-1.33q-1.24,0-1.24,1.33a1.08,1.08,0,0,0,1.24,1.21Q291.3,158.15,291.3,156.94Zm.66,16.82q0-1.3-1.24-1.29t-1.24,1.29a1.24,1.24,0,0,0,2.48,0Zm.7,13.37a1.37,1.37,0,0,0-.43-1,1.48,1.48,0,0,0-1.06-.41,1.38,1.38,0,0,0-1.41,1.45.93.93,0,0,0,.39.84,1.83,1.83,0,0,0,1,.25,2.15,2.15,0,0,0,1.1-.23A.92.92,0,0,0,292.66,187.12ZM303.75,156a7,7,0,0,1-2.56,5.84,9,9,0,0,1-5.75,1.8q-3,0-3-.71l2.83-3a22.61,22.61,0,0,0,2.59-3.41q0-.43-3.21-3a42,42,0,0,0-4.78-3.51,9.83,9.83,0,0,1,2.26-1.33,6.81,6.81,0,0,1,2.63-.47,9.11,9.11,0,0,1,6.81,2.55A7.3,7.3,0,0,1,303.75,156Zm-.5,41.27q-1.65.31-3.31.59l-3.48.79q-1.2-1.88-2.32-3.33-.37-.47-.87-1.06a41.13,41.13,0,0,1,2.36-4A21.36,21.36,0,0,0,298,186.1c0-.39-.57-1-1.72-1.82s-1.72-1.44-1.72-1.86q.83-2.39,1.65-4.74a31.38,31.38,0,0,0,1.66-5.57l-3.72-5.06a50.75,50.75,0,0,0,5.42-.47l3.48-.47Z"/><path class="cls-8" d="M353.2,186.41a6.31,6.31,0,0,1-1.08.06l-1.82,0H342.9a.38.38,0,0,0-.19-.29c-.12-.09-.19-.18-.19-.25a19.22,19.22,0,0,1,2.52-2.63q2.32-2.24,3.35-3.1v-.63q-2.81-2.08-5.13-3.61A14.19,14.19,0,0,1,340,173.4q-2.07-2.78-3.64-5.29-1.41-2.23-2.07-2.23L330.07,170a5.74,5.74,0,0,1-3.27.86h-5.92a8.75,8.75,0,0,0-2.69.31,1.25,1.25,0,0,0-.91,1.3,6.89,6.89,0,0,0,.64,2.55,7.27,7.27,0,0,1,.64,2.79q0,1.49-2.37,3.42-2,1.57-4.08,3.1a25.93,25.93,0,0,1,3.77,2.83q1.32,1.26,2.69,2.47,0,1.33-.08,2.51-.29,4.09-.29,4.2a19.23,19.23,0,0,0,2.9-.2,37,37,0,0,1,4.34-.51q.12.12,3.39,2a35.83,35.83,0,0,1,3,2,13.38,13.38,0,0,1-1.43,2l-1,1.1a19.73,19.73,0,0,1-7.65-1.8,22.16,22.16,0,0,1-8.48-6.08,16.9,16.9,0,0,1-4-11.21q0-9.6,6-15.13,5.71-5.25,14.85-5.25,9.6,0,15.19,4a16.85,16.85,0,0,1,6,8l1.66,5.78q.12,1.05.16,2.05T353.2,186.41Zm-38.4-8.82a1.16,1.16,0,0,0-1.32-1.29q-1.37,0-1.36,1.29,0,1.06,1.36,1.06a1.82,1.82,0,0,0,1-.21A1,1,0,0,0,314.8,177.6Zm.75,13.52a1.1,1.1,0,0,0-1.24-1.25c-.91,0-1.36.42-1.36,1.25a1.21,1.21,0,0,0,1.36,1.37Q315.54,192.49,315.55,191.12Zm29.87-10.82q-1.9,2.08-3,3.1-3.31,3.1-4.8,3.1h-8.52q0,1.18,2.4,2.7,2.65,1.29,5.34,2.55a8.69,8.69,0,0,1-1.45,2.43q-1.16,1.57-2.27,3.14-.66-.27-2.81-1.49-2.53-1.45-3.89-2.08-1,0-2.44-.1l-1.7-.1h-.66a5.16,5.16,0,0,1-.7.08,17.61,17.61,0,0,1-.23-2.49,20.31,20.31,0,0,0-.15-2.1q-1.49-1.92-1.74-2.2a21.33,21.33,0,0,0-3.43-2.9,21.54,21.54,0,0,0,3.52-2.53q2.07-1.74,2.06-2.25-.51-1.57-.77-2.39a16.39,16.39,0,0,1-.81-3.29,1,1,0,0,1,.79-.92,7.25,7.25,0,0,1,2.15-.25q1,0,2.63.1l1.8.1q4.26,0,6-2.16,1.41-1.77,1.49-1.84.74.67,1.53,1.29,1.32,2.55,2.65,5.06l5.83,4.12C345,179.54,345.42,180,345.42,180.3ZM327,167.17q0-1.29-1.24-1.29a1.16,1.16,0,0,0-1.32,1.29,1.4,1.4,0,0,0,.33.94,1.22,1.22,0,0,0,1,.39,1.13,1.13,0,0,0,.91-.39A1.41,1.41,0,0,0,327,167.17ZM328,199.82q0-1.21-1.28-1.21t-1.32,1.21a1.16,1.16,0,0,0,1.32,1.29A1.14,1.14,0,0,0,328,199.82ZM335.12,178V176.3a5.57,5.57,0,0,0-1.49-1.8,3.72,3.72,0,0,0-2.32-1,5.27,5.27,0,0,0-3.39,1.19,4,4,0,0,0-1.49,3.31Zm9.6-7.53a1.32,1.32,0,0,0-2.65,0q0,1.18,1.32,1.18T344.72,170.5Z"/><path class="cls-9" d="M381.21,164,377,166.57a15.82,15.82,0,0,0-3.52,2.55q.5,1.88.83,2.82a15.16,15.16,0,0,0,1.32,2.9,29.66,29.66,0,0,1-3.1,2.86q-1.37,1.06-2.77,2.12,1,3.45,1.7,5.72.83,2.78,1,3.45-.25.12-4.06,2.24a52.2,52.2,0,0,0-4.55,2.71l-.83,1.73a11.77,11.77,0,0,1-1,1.65q-1.45-1.18-2.28-2a19.69,19.69,0,0,1-1.45-1.69,45.16,45.16,0,0,0,3.48-3.14,37.79,37.79,0,0,0,4.84-6.74,11.89,11.89,0,0,0,1.3-2.92,9.94,9.94,0,0,0,.35-2.57,14.53,14.53,0,0,0-.29-2.51,14.35,14.35,0,0,1-.29-2.35,12.83,12.83,0,0,1,1.9-6.78,19.27,19.27,0,0,1,4.1-4.59q1.86-1.49,3.77-3,1.2,1.25,2.44,2.51A8.79,8.79,0,0,1,381.21,164Zm4.72,5.5q-2.23,2.31-4.43,4.62a12.77,12.77,0,0,0-1.45,6.39q0,1.17.1,2.8t.1,2.18a12.67,12.67,0,0,1-2.36,7.09,30.72,30.72,0,0,1-5.09,5.64l-4.72,4.08a10.86,10.86,0,0,1-2-1.35,18.42,18.42,0,0,1-1.92-2q.41-1.45.5-1.76a10.82,10.82,0,0,1,1-2.27l4.88-2.82q1.74-1.06,3.81-2.51l-2-9,2.81-2.59q.87-.78,2.32-2-.5-2-1.12-3.84c-.5-1.57-.77-2.43-.83-2.59q2.48-1.33,3.23-1.8a26.1,26.1,0,0,0,3.43-2.47q.87,1,1.28,1.53A23.65,23.65,0,0,0,385.93,169.48Zm-15.72,17.28q0-1.3-1.24-1.3a1.16,1.16,0,0,0-1.32,1.3q0,1.21,1.32,1.21A1.09,1.09,0,0,0,370.21,186.76Zm2.89-13.51q0-1.29-1.53-1.29-1.11,0-1.12,1.29t1.12,1.18Q373.1,174.42,373.1,173.24Zm5.67-10.4a1.19,1.19,0,0,0-1.36-1.33,1.17,1.17,0,0,0-1.32,1.33q0,1.14,1.32,1.14T378.77,162.85Z"/><path class="cls-10" d="M405.38,176.14a10.65,10.65,0,0,1-1.24,3.39q-1.23,2.57-2.53,5.19,0,.51,1.88,3t1.88,3.37c-.41.81-.77,1.49-1.08,2q-1.37,2.51-2.77,4.86-1.7.39-3,.63l-2.71.47V175.56h-4.26l-1.45-12.94,5.71.08V152.43a11.48,11.48,0,0,1,2.92-.75q2-.31,2.26-.39.37.86,1.32,2.67a20.2,20.2,0,0,1,1.95,4.7q0,.24-1.7,4.31t-1.7,4.27q0,1,2.28,4.51T405.38,176.14Zm-3.64-17.56c0-.86-.47-1.29-1.41-1.29a1.14,1.14,0,0,0-1.28,1.29q0,1.1,1.28,1.1a1.92,1.92,0,0,0,1.07-.23A1,1,0,0,0,401.74,158.58Zm0,17.56c0-.86-.45-1.29-1.36-1.29a1.16,1.16,0,0,0-1.32,1.29c0,.84.44,1.26,1.32,1.26S401.74,177,401.74,176.14Zm0,14.31a1.19,1.19,0,0,0-1.36-1.33,1.17,1.17,0,0,0-1.32,1.33,1.16,1.16,0,0,0,1.32,1.29C401.28,191.75,401.74,191.31,401.74,190.45Zm19.53-28.22-.66,3.38q-1.08,5.35-1.28,6.41a25,25,0,0,1-.91,3.66h-5.54v20.27q-2,.67-3.62,1.08t-4.61,1q1.11-2.19,1.65-3.37a18.81,18.81,0,0,0,1.7-4.19,13.93,13.93,0,0,0-2.07-2.86q-2.07-2.55-2.07-3.1,0-.12,2.07-4.12t2.07-4.9q0-.86-2.44-4t-2.44-3.65l1.74-4.12q1.78-4.23,1.78-4.31a25.51,25.51,0,0,0-1.24-4q-.41-1.14-1.74-4.66,2.44-.59,4.55-.9,2.94-.47,4.84-.82l-.16,13.25c.8,0,1.61,0,2.44.06l2.69.1Q419.32,162.39,421.27,162.23Z"/><path class="cls-11" d="M460.91,191.31q-.66,1.26-1.41,2.82a11.4,11.4,0,0,1-1.22,2.21,4.94,4.94,0,0,1-2,.8,9.09,9.09,0,0,0-2.19.86c-.33-.47-.57-.78-.7-.94a.94.94,0,0,0-.75-.43q-3.31.51-6.39.94A36.61,36.61,0,0,1,442,198a13.7,13.7,0,0,1-6.58-1.88,17.33,17.33,0,0,1-6.33-5.88,18.4,18.4,0,0,1-2.9-10.23,17.69,17.69,0,0,1,1.12-6.39A16.89,16.89,0,0,1,430,169a14.55,14.55,0,0,1,6.54-4.12,23.27,23.27,0,0,1,7.2-1.06,22.21,22.21,0,0,1,4.3.37,7.45,7.45,0,0,1,2.48.8,3.3,3.3,0,0,0,.35-.8l.23-.69c.33,0,1.52,0,3.56-.14s4-.14,6-.14l-4.43,9.21q2.27,4.11,2.61,4.82a11.49,11.49,0,0,0,.62,1.18c-.42.86-.83,1.71-1.23,2.55q-.76,1.49-2.5,4.19,2,2.67,3,3.84Q459.13,189.51,460.91,191.31Zm-9.39-8.47v-1.76q0-3.1-.62-4-.79-1.14-3.72-1.14a3.93,3.93,0,0,0-3.06,1.47,4.62,4.62,0,0,0-1.28,3.08,4.4,4.4,0,0,0,1.45,3.45,5.1,5.1,0,0,0,3.52,1.29,7,7,0,0,0,2.48-.31A2,2,0,0,0,451.52,182.85Zm17.38,11.92q-3.6.43-5.09.67c-1.71.37-2.8.59-3.27.67.44-.81.85-1.63,1.24-2.47.19-.42.54-1.19,1-2.31-.83-.78-1.6-1.58-2.31-2.39q-1.49-1.73-2.94-3.45.55-.86,2.45-4.19.72-1.29,1.69-2.78a15.4,15.4,0,0,1-1.78-2.69q-.93-1.71-1.78-3.31.83-1.61,2.36-4.67,1-2.12,2.44-4.86l5.09-.27,0,22A79.1,79.1,0,0,0,468.9,194.76Zm-6.46-24q0-1.29,1.36-1.29a1.14,1.14,0,0,1,1.28,1.29q0,1.33-1.28,1.33A1.19,1.19,0,0,1,462.44,170.77Zm0,14q0-1.14,1.24-1.14t1.2,1.14q0,1.29-1.2,1.29T462.44,184.81Z"/><path class="cls-5" d="M47.79,185l.09,1v1.75l.17,3.21L48,192.87q0,9.89-16.37,9.89-10.1,0-13.76-3.41t-3.66-12.9V179.7q0-15,17.16-15,16.54,0,16.55,10.95a21.07,21.07,0,0,1-1,5.91H36.3v-3.5l-.44-2q-.7-1.39-3.83-1.39-4.79,0-4.79,8.65,0,9.45,4.7,9.45,4.53,0,4.53-4.05l-.09-1.68-.09-1.28V185Z"/><path class="cls-5" d="M151.34,160.46a31.62,31.62,0,0,1,4.09.33v-8.06a59.53,59.53,0,0,0-10.19-.88q-15.24,0-15.24,8.54a12,12,0,0,0,1.22,4.85H114.5a3.52,3.52,0,0,1-.61-1.68q0-3.1,7.05-3.1a31.61,31.61,0,0,1,4.09.33v-8.06a59.53,59.53,0,0,0-10.19-.88q-15.24,0-15.24,8.54a12,12,0,0,0,1.22,4.85H96v10h4.79v16.64H96v10.47h24V191.85h-6.79V175.21h17.94v16.64h-4.79v10.47h24V191.85h-6.79V175.21h9.23v-10h-8a3.52,3.52,0,0,1-.61-1.68Q144.28,160.46,151.34,160.46Z"/><path class="cls-5" d="M193.57,186.41a18.52,18.52,0,0,1,.61,5.07q0,11.28-16.55,11.28-11.58,0-14.93-3.8t-3.35-17q0-10,3.7-13.65t14-3.61q10.19,0,13.93,3.72t3.74,13.76l-.09,2.48h-22v3.69l.26,1.79q.61,1.83,4.35,1.75,4.35-.07,4.36-3.5v-1.2l.09-.8Zm-21.25-5.84h9.32v-2.66q0-3.21-4.62-3.21-4.88,0-4.88,3.87A14.28,14.28,0,0,0,172.33,180.57Z"/><path class="cls-5" d="M236.51,186.41a18.54,18.54,0,0,1,.61,5.07q0,11.28-16.55,11.28-11.58,0-14.93-3.8t-3.35-17q0-10,3.7-13.65t14-3.61q10.19,0,13.93,3.72t3.74,13.76l-.09,2.48h-22v3.69l.26,1.79q.61,1.83,4.35,1.75,4.35-.07,4.35-3.5v-1.2l.09-.8Zm-21.25-5.84h9.32v-2.66q0-3.21-4.62-3.21-4.88,0-4.88,3.87A14.34,14.34,0,0,0,215.26,180.57Z"/><path class="cls-5" d="M494.59,0V32.25h5.57V44h-24.6V32.25h5.21V13.32h-5.21V3.39q9,0,12-3.39Z"/><path class="cls-5" d="M516.86,6.08v7.61h-5v-.52q0-2.05-3.26-2.05-2.56,0-2.56,1.14,0,.95,2.26,1.53l3.26.83q6.39,1.66,6.38,5.21,0,6.18-6.21,6.18-4.13,0-5.78-2.07v1.82h-5V17.7h5v.39q0,2.63,3,2.63,2.65,0,2.65-1.36t-3-2.3l-2.13-.58q-6.12-1.65-6.12-5.31,0-5.35,6-5.34,3.78,0,5.65,2.15V6.08Z"/><path class="cls-5" d="M532.15,6.08v5.29h-4v6.72l0,1q0,1.67,2.48,1.67a9.35,9.35,0,0,0,2.69-.5v5.29a31.64,31.64,0,0,1-4.69.5q-6.86,0-6.86-4.61l.08-1.26,0-1.28V11.37h-2.35V6.08q5.52-1.37,6.13-4.9l.17-.85a1.64,1.64,0,0,1,.09-.33h2.17V6.08Z"/><path class="cls-5" d="M598.2,32.25V44H574.25V32.25h5.14l-1.52-6H567.16l-1.59,6h5.57V44h-20V32.25h4.56L565.57,0H583.8l10.13,32.25ZM576.5,21.77l-4-13.54-4.12,13.54Z"/><path class="cls-5" d="M639.15,34.77V44H621.64V34.77h3V24.22l-.07-1.45q0-3.16-3.33-3.16-5.72,0-5.72,6v9.16h3.69V44H601.74V34.77h3.91V20.06h-3.91v-8.8h13.82v4a13.34,13.34,0,0,1,10.56-4.45q8.9,0,8.9,6.8V34.77Z"/><path class="cls-5" d="M680.09,34.77V44H662.59V34.77h3V24.22l-.07-1.45q0-3.16-3.33-3.16-5.71,0-5.71,6v9.16h3.69V44H642.69V34.77h3.91V20.06h-3.91v-8.8h13.82v4a13.34,13.34,0,0,1,10.56-4.45q8.9,0,8.9,6.8V34.77Z"/><path class="cls-5" d="M715.9,11.26V34.77H720V44H706.21V40q-2.6,4.42-9.77,4.42-10.2,0-10.2-8.9V20.06h-4v-8.8h14.32V30.35q0,5.26,4.12,5.26,4.84,0,4.85-6.77V20.06h-4.2v-8.8Z"/><path class="cls-5" d="M757.57,34.54v9.09a23.37,23.37,0,0,1-6,.81q-6.37,0-9.12-3.1-2.46,3.1-8.17,3.1Q724,44.44,724,33.51q0-5.74,11.87-8.68,6-1.45,6-3.13,0-2.09-3.62-2.1-3.84,0-3.83,2.52a5.22,5.22,0,0,0,.36,1.55h-9.91a10.8,10.8,0,0,1-1.08-5q0-7.9,15-7.9,14,0,14,8.16v12q0,3.93,3,3.93A7.16,7.16,0,0,0,757.57,34.54Zm-15.12-6.48q-8.83,1.94-8.83,4.55,0,2.26,4.27,2.26,4.56,0,4.56-4Z"/><path class="cls-5" d="M775.44,34.77h4.2V44H761.12V34.77h4V8.8h-4V0h14.32Z"/></g></g></svg>